<svg width="243" height="35" viewBox="0 0 243 35" fill="none" xmlns="http://www.w3.org/2000/svg">
<path d="M19.95 0.399998V4.58H12.464V27H8.094V4.58H0.57V0.399998H19.95ZM32.6785 8H36.7825V27H32.6785V24.568C31.4372 26.5187 29.4738 27.494 26.7885 27.494C24.6098 27.494 22.8492 26.7973 21.5065 25.404C20.1638 24.0107 19.4925 22.098 19.4925 19.666V8H23.5965V19.248C23.5965 20.6667 23.9765 21.756 24.7365 22.516C25.4965 23.276 26.5352 23.656 27.8525 23.656C29.2965 23.656 30.4618 23.2127 31.3485 22.326C32.2352 21.414 32.6785 20.0333 32.6785 18.184V8ZM45.6855 11.192C46.7242 8.836 48.6748 7.658 51.5375 7.658V12.104C49.9668 12.0027 48.5988 12.3827 47.4335 13.244C46.2682 14.08 45.6855 15.4733 45.6855 17.424V27H41.5815V8H45.6855V11.192ZM71.3658 27H66.4638L58.6738 18.222V27H54.5698V0.399998H58.6738V16.398L66.0458 8H71.0618L62.7018 17.31L71.3658 27ZM94.8744 7.506C97.0278 7.506 98.7631 8.20267 100.08 9.596C101.398 10.9893 102.056 12.864 102.056 15.22V27H97.9524V15.486C97.9524 14.1687 97.6231 13.1553 96.9644 12.446C96.3058 11.7113 95.4064 11.344 94.2664 11.344C92.9998 11.344 91.9864 11.762 91.2264 12.598C90.4918 13.434 90.1244 14.688 90.1244 16.36V27H86.0204V15.486C86.0204 14.1687 85.7038 13.1553 85.0704 12.446C84.4624 11.7113 83.5884 11.344 82.4484 11.344C81.2071 11.344 80.1938 11.7747 79.4084 12.636C78.6231 13.472 78.2304 14.7133 78.2304 16.36V27H74.1264V8H78.2304V10.28C79.4464 8.43067 81.2578 7.506 83.6644 7.506C86.0964 7.506 87.8951 8.50667 89.0604 10.508C90.3271 8.50667 92.2651 7.506 94.8744 7.506ZM109.679 19.248C109.983 20.692 110.679 21.8067 111.769 22.592C112.858 23.352 114.188 23.732 115.759 23.732C117.937 23.732 119.571 22.9467 120.661 21.376L124.043 23.352C122.168 26.1133 119.394 27.494 115.721 27.494C112.63 27.494 110.135 26.5567 108.235 24.682C106.335 22.782 105.385 20.388 105.385 17.5C105.385 14.6627 106.322 12.294 108.197 10.394C110.071 8.46867 112.478 7.506 115.417 7.506C118.203 7.506 120.483 8.48133 122.257 10.432C124.055 12.3827 124.955 14.7513 124.955 17.538C124.955 17.9687 124.904 18.5387 124.803 19.248H109.679ZM109.641 15.904H120.813C120.534 14.3587 119.888 13.1933 118.875 12.408C117.887 11.6227 116.721 11.23 115.379 11.23C113.859 11.23 112.592 11.648 111.579 12.484C110.565 13.32 109.919 14.46 109.641 15.904ZM138.56 7.506C140.739 7.506 142.499 8.20267 143.842 9.596C145.185 10.9893 145.856 12.902 145.856 15.334V27H141.752V15.752C141.752 14.3333 141.372 13.244 140.612 12.484C139.852 11.724 138.813 11.344 137.496 11.344C136.052 11.344 134.887 11.8 134 12.712C133.113 13.5987 132.67 14.9667 132.67 16.816V27H128.566V8H132.67V10.432C133.911 8.48133 135.875 7.506 138.56 7.506ZM164.411 22.82H176.191V27H160.041V0.399998H176.001V4.58H164.411V11.496H175.051V15.638H164.411V22.82ZM196.911 27H192.161L187.449 20.502L182.699 27H177.911L185.055 17.234L178.291 8H183.041L187.411 14.004L191.781 8H196.569L189.805 17.272L196.911 27ZM210.421 7.506C213.031 7.506 215.26 8.48133 217.109 10.432C218.959 12.3573 219.883 14.7133 219.883 17.5C219.883 20.312 218.959 22.6807 217.109 24.606C215.26 26.5313 213.031 27.494 210.421 27.494C207.533 27.494 205.317 26.43 203.771 24.302V34.6H199.667V8H203.771V10.736C205.317 8.58267 207.533 7.506 210.421 7.506ZM205.481 21.87C206.621 23.01 208.053 23.58 209.775 23.58C211.498 23.58 212.929 23.01 214.069 21.87C215.209 20.7047 215.779 19.248 215.779 17.5C215.779 15.752 215.209 14.308 214.069 13.168C212.929 12.0027 211.498 11.42 209.775 11.42C208.053 11.42 206.621 12.0027 205.481 13.168C204.341 14.308 203.771 15.752 203.771 17.5C203.771 19.248 204.341 20.7047 205.481 21.87ZM232.571 27.494C229.784 27.494 227.416 26.5313 225.465 24.606C223.514 22.6807 222.539 20.312 222.539 17.5C222.539 14.688 223.514 12.3193 225.465 10.394C227.416 8.46867 229.784 7.506 232.571 7.506C235.383 7.506 237.752 8.46867 239.677 10.394C241.628 12.3193 242.603 14.688 242.603 17.5C242.603 20.312 241.628 22.6807 239.677 24.606C237.752 26.5313 235.383 27.494 232.571 27.494ZM228.353 21.794C229.493 22.934 230.899 23.504 232.571 23.504C234.243 23.504 235.649 22.934 236.789 21.794C237.929 20.654 238.499 19.2227 238.499 17.5C238.499 15.7773 237.929 14.346 236.789 13.206C235.649 12.066 234.243 11.496 232.571 11.496C230.899 11.496 229.493 12.066 228.353 13.206C227.213 14.346 226.643 15.7773 226.643 17.5C226.643 19.2227 227.213 20.654 228.353 21.794Z" fill="#ECF0F3"/>
</svg>
