<svg width="20" height="20" viewBox="0 0 20 20" fill="none" xmlns="http://www.w3.org/2000/svg">
<path d="M6.50033 1.66663H13.5003C16.167 1.66663 18.3337 3.83329 18.3337 6.49996V13.5C18.3337 14.7818 17.8244 16.0112 16.918 16.9176C16.0116 17.8241 14.7822 18.3333 13.5003 18.3333H6.50033C3.83366 18.3333 1.66699 16.1666 1.66699 13.5V6.49996C1.66699 5.21808 2.17622 3.9887 3.08264 3.08228C3.98907 2.17585 5.21845 1.66663 6.50033 1.66663ZM6.33366 3.33329C5.53801 3.33329 4.77495 3.64936 4.21234 4.21197C3.64973 4.77458 3.33366 5.53764 3.33366 6.33329V13.6666C3.33366 15.325 4.67533 16.6666 6.33366 16.6666H13.667C14.4626 16.6666 15.2257 16.3506 15.7883 15.7879C16.3509 15.2253 16.667 14.4623 16.667 13.6666V6.33329C16.667 4.67496 15.3253 3.33329 13.667 3.33329H6.33366ZM14.3753 4.58329C14.6516 4.58329 14.9165 4.69304 15.1119 4.88839C15.3072 5.08374 15.417 5.34869 15.417 5.62496C15.417 5.90123 15.3072 6.16618 15.1119 6.36153C14.9165 6.55688 14.6516 6.66663 14.3753 6.66663C14.0991 6.66663 13.8341 6.55688 13.6388 6.36153C13.4434 6.16618 13.3337 5.90123 13.3337 5.62496C13.3337 5.34869 13.4434 5.08374 13.6388 4.88839C13.8341 4.69304 14.0991 4.58329 14.3753 4.58329ZM10.0003 5.83329C11.1054 5.83329 12.1652 6.27228 12.9466 7.05368C13.728 7.83508 14.167 8.89489 14.167 9.99996C14.167 11.105 13.728 12.1648 12.9466 12.9462C12.1652 13.7276 11.1054 14.1666 10.0003 14.1666C8.89526 14.1666 7.83545 13.7276 7.05405 12.9462C6.27265 12.1648 5.83366 11.105 5.83366 9.99996C5.83366 8.89489 6.27265 7.83508 7.05405 7.05368C7.83545 6.27228 8.89526 5.83329 10.0003 5.83329ZM10.0003 7.49996C9.33728 7.49996 8.7014 7.76335 8.23256 8.23219C7.76372 8.70103 7.50033 9.33692 7.50033 9.99996C7.50033 10.663 7.76372 11.2989 8.23256 11.7677C8.7014 12.2366 9.33728 12.5 10.0003 12.5C10.6634 12.5 11.2993 12.2366 11.7681 11.7677C12.2369 11.2989 12.5003 10.663 12.5003 9.99996C12.5003 9.33692 12.2369 8.70103 11.7681 8.23219C11.2993 7.76335 10.6634 7.49996 10.0003 7.49996Z" fill="white"/>
</svg>
