<svg width="20" height="20" viewBox="0 0 20 20" fill="none" xmlns="http://www.w3.org/2000/svg">
<path d="M5.78255 4.16667C5.78233 4.60869 5.60652 5.03253 5.29381 5.34493C4.98109 5.65734 4.55708 5.83272 4.11505 5.8325C3.67302 5.83228 3.24919 5.65647 2.93678 5.34376C2.62438 5.03104 2.449 4.60703 2.44922 4.165C2.44944 3.72297 2.62525 3.29914 2.93796 2.98673C3.25068 2.67433 3.67469 2.49895 4.11672 2.49917C4.55875 2.49939 4.98258 2.67519 5.29499 2.98791C5.60739 3.30063 5.78277 3.72464 5.78255 4.16667ZM5.83255 7.06667H2.49922V17.5H5.83255V7.06667ZM11.0992 7.06667H7.78255V17.5H11.0659V12.025C11.0659 8.975 15.0409 8.69167 15.0409 12.025V17.5H18.3326V10.8917C18.3326 5.75 12.4492 5.94167 11.0659 8.46667L11.0992 7.06667Z" fill="white"/>
</svg>
