<svg width="65" height="64" viewBox="0 0 65 64" fill="none" xmlns="http://www.w3.org/2000/svg">
<rect x="0.333374" width="64" height="64" rx="2" fill="#C7D0E1"/>
<path fillRule="evenodd" clipRule="evenodd" d="M32.0004 16.0005C29.2315 16.0005 26.5247 16.8216 24.2225 18.3599C21.9202 19.8982 20.1258 22.0846 19.0661 24.6428C18.0065 27.2009 17.7292 30.0158 18.2693 32.7315C18.8094 35.4471 20.1427 37.9416 22.1004 39.8995C22.1004 39.8995 22.1005 39.8996 22.1004 39.8995L30.5879 48.385C30.9629 48.7596 31.4713 48.9701 32.0014 48.9701C32.5315 48.9701 33.0399 48.7596 33.4149 48.385L41.9001 39.8997C41.9001 39.8997 41.9001 39.8997 41.9001 39.8997C43.858 37.9418 45.1913 35.4472 45.7314 32.7315C46.2716 30.0158 45.9943 27.2009 44.9346 24.6428C43.875 22.0846 42.0806 19.8982 39.7783 18.3599C37.476 16.8216 34.7693 16.0005 32.0004 16.0005ZM22.0002 15.034C24.9603 13.0561 28.4403 12.0005 32.0004 12.0005C35.5604 12.0005 39.0405 13.0561 42.0005 15.034C44.9606 17.0118 47.2677 19.823 48.6301 23.112C49.9925 26.401 50.349 30.0201 49.6546 33.5118C48.9601 37.0034 47.2459 40.2107 44.7286 42.7281L36.2426 51.2141C35.1175 52.338 33.5916 52.9701 32.0014 52.9701C30.4111 52.9701 28.8859 52.3387 27.7609 51.2148L19.2723 42.7283C16.7551 40.2109 15.0406 37.0034 14.3462 33.5118C13.6517 30.0201 14.0082 26.401 15.3706 23.112C16.733 19.823 19.0401 17.0118 22.0002 15.034ZM26.3435 24.3431C27.8438 22.8429 29.8786 22 32.0004 22C34.1221 22 36.1569 22.8429 37.6572 24.3431C39.1575 25.8434 40.0004 27.8783 40.0004 30C40.0004 32.1217 39.1575 34.1566 37.6572 35.6569C36.1569 37.1571 34.1221 38 32.0004 38C29.8786 38 27.8438 37.1571 26.3435 35.6569C24.8432 34.1566 24.0004 32.1217 24.0004 30C24.0004 27.8783 24.8432 25.8434 26.3435 24.3431ZM32.0004 26C30.9395 26 29.9221 26.4214 29.1719 27.1716C28.4218 27.9217 28.0004 28.9391 28.0004 30C28.0004 31.0609 28.4218 32.0783 29.1719 32.8284C29.9221 33.5786 30.9395 34 32.0004 34C33.0612 34 34.0786 33.5786 34.8288 32.8284C35.5789 32.0783 36.0004 31.0609 36.0004 30C36.0004 28.9391 35.5789 27.9217 34.8288 27.1716C34.0786 26.4214 33.0612 26 32.0004 26Z" fill="#1D2637"/>
</svg>
