<svg width="64" height="64" viewBox="0 0 64 64" fill="none" xmlns="http://www.w3.org/2000/svg">
<rect width="64" height="64" rx="2" fill="#C7D0E1"/>
<path fillRule="evenodd" clipRule="evenodd" d="M18 20C17.4696 20 16.9609 20.2107 16.5858 20.5858C16.4394 20.7322 16.3181 20.8989 16.2245 21.0793L32 31.5963L47.7755 21.0793C47.6819 20.8989 47.5606 20.7322 47.4142 20.5858C47.0391 20.2107 46.5304 20 46 20H18ZM48 25.737L33.1094 35.6641C32.4376 36.112 31.5624 36.112 30.8906 35.6641L16 25.737V42C16 42.5304 16.2107 43.0391 16.5858 43.4142C16.9609 43.7893 17.4696 44 18 44H46C46.5304 44 47.0391 43.7893 47.4142 43.4142C47.7893 43.0391 48 42.5304 48 42V25.737ZM13.7574 17.7574C14.8826 16.6321 16.4087 16 18 16H46C47.5913 16 49.1174 16.6321 50.2426 17.7574C51.3679 18.8826 52 20.4087 52 22V42C52 43.5913 51.3679 45.1174 50.2426 46.2426C49.1174 47.3679 47.5913 48 46 48H18C16.4087 48 14.8826 47.3679 13.7574 46.2426C12.6321 45.1174 12 43.5913 12 42V22C12 20.4087 12.6321 18.8826 13.7574 17.7574Z" fill="#1D2637"/>
</svg>
