<svg width="65" height="64" viewBox="0 0 65 64" fill="none" xmlns="http://www.w3.org/2000/svg">
<rect x="0.666626" width="64" height="64" rx="2" fill="#C7D0E1"/>
<path fillRule="evenodd" clipRule="evenodd" d="M24.6666 16C24.1362 16 23.6275 16.2107 23.2524 16.5858C22.8773 16.9609 22.6666 17.4696 22.6666 18V46C22.6666 46.5304 22.8773 47.0391 23.2524 47.4142C23.6275 47.7893 24.1362 48 24.6666 48H40.6666C41.1971 48 41.7058 47.7893 42.0808 47.4142C42.4559 47.0391 42.6666 46.5304 42.6666 46V18C42.6666 17.4696 42.4559 16.9609 42.0808 16.5858C41.7058 16.2107 41.1971 16 40.6666 16H36.6666C36.6666 17.1046 35.7712 18 34.6666 18H30.6666C29.5621 18 28.6666 17.1046 28.6666 16H24.6666ZM20.424 13.7574C21.5492 12.6321 23.0753 12 24.6666 12H40.6666C42.2579 12 43.784 12.6321 44.9093 13.7574C46.0345 14.8826 46.6666 16.4087 46.6666 18V46C46.6666 47.5913 46.0345 49.1174 44.9093 50.2426C43.784 51.3679 42.2579 52 40.6666 52H24.6666C23.0753 52 21.5492 51.3679 20.424 50.2426C19.2988 49.1174 18.6666 47.5913 18.6666 46V18C18.6666 16.4087 19.2988 14.8826 20.424 13.7574ZM32.6666 40C33.7712 40 34.6666 40.8954 34.6666 42V42.02C34.6666 43.1246 33.7712 44.02 32.6666 44.02C31.5621 44.02 30.6666 43.1246 30.6666 42.02V42C30.6666 40.8954 31.5621 40 32.6666 40Z" fill="#1D2637"/>
</svg>
